<svg class="svg" xmlns="http://www.w3.org/2000/svg" xmlns:xlink="http://www.w3.org/1999/xlink" width="10" height="10"><path d="M4.12734 9.5C5.66517 9.5 6.84905 8.58288 6.84905 7.01766V4.57201H8.10617L8.6676 5.94158H8.69201L8.70421 4.47418H4.5179C3.37064 4.47418 2.58952 3.42255 2.58952 2.29755C2.58952 1.33152 3.22418 0.57337 4.05411 0.57337C4.53011 0.57337 4.95728 0.756794 5.18918 1.02582L5.89707 2.55435H5.92148L5.95809 0.866848C5.56753 0.732337 4.85964 0.5 3.98088 0.5C2.58952 0.5 1.61312 1.28261 1.61312 2.45652C1.61312 3.66712 2.71157 4.3519 3.89545 4.49864C2.44306 4.49864 1.29579 5.62364 1.29579 6.91984C1.29579 8.55842 2.51629 9.5 4.12734 9.5ZM4.12734 9.4144C3.08992 9.4144 2.39424 8.13043 2.39424 6.95652C2.39424 5.36685 3.34623 4.57201 4.54231 4.57201H5.82384V7.23777C5.82384 8.58288 5.29902 9.4144 4.12734 9.4144Z" fill="none" stroke-width="1"></path></svg>