<svg width="175" height="70" viewBox="0 0 175 70" fill="none" xmlns="http://www.w3.org/2000/svg">
<g clip-path="url(#clip0)">
<path d="M87.0869 27.3981C48.9905 27.3981 24.2452 41.3146 16.6346 48.2729C21.5271 55.4486 42.4671 69.8 87.0869 69.8C131.707 69.8 151.342 55.4486 155.582 48.2729C148.624 41.3146 125.183 27.3981 87.0869 27.3981Z" fill="#C6FFAB" stroke="#C6FFAB"/>
<circle cx="94.2626" cy="48.9252" r="20.8748" stroke="black"/>
<circle cx="106.005" cy="43.7065" r="7.82804" stroke="black"/>
<path d="M86.4346 20.2224V0M61.972 20.2224L51.2084 2.93551M42.0757 27.072L27.3981 14.6776M21.5271 36.857L7.50187 32.943M10.7636 48.9252H0M110.571 20.2224L124.27 0M130.467 27.072L147.428 14.6776M151.016 36.857L162.432 32.943M162.432 48.9252H174.5" stroke="black"/>
</g>
<defs>
<clipPath id="clip0">
<rect width="174.5" height="69.8" fill="white"/>
</clipPath>
</defs>
</svg>
