<svg width="200" height="95" viewBox="0 0 200 95" fill="none" xmlns="http://www.w3.org/2000/svg">
<g clip-path="url(#clip0)">
<path d="M157 72.1429C159.357 72.1429 173.034 82 173.034 82L171.212 70.4896C187.976 66.4537 200 55.4782 200 42.5714C200 26.2396 180.748 13 157 13C133.252 13 114 26.2396 114 42.5714C114 58.9033 133.252 72.1429 157 72.1429Z" fill="#C6FFAB"/>
<path d="M118.5 14.5H94.5L99.5 49.5H113.5L118.5 14.5Z" stroke="black"/>
<path d="M107 81C103.766 81 85 94.5 85 94.5L87.5 78.7357C64.4975 73.2084 48 58.1767 48 40.5C48 18.1325 74.4152 -4.0033e-06 107 -2.57897e-06C139.585 -1.15465e-06 166 18.1325 166 40.5C166 62.8675 139.585 81 107 81Z" stroke="black"/>
<ellipse cx="107" cy="60" rx="9" ry="4" stroke="black"/>
<path d="M48 74.0157L31.5115 94M31.5115 44.4094H0M41.4046 14.8031L15.0229 0M31.5115 28.8661L12.8244 22.5748M37.7405 60.3228L18.687 68.8346" stroke="black"/>
<path d="M87.5 79L88 75" stroke="black"/>
</g>
<defs>
<clipPath id="clip0">
<rect width="200" height="94.5" fill="white"/>
</clipPath>
</defs>
</svg>
