        <svg
          width="119"
          height="19"
          viewBox="0 0 119 19"
          fill="none"
          xmlns="http://www.w3.org/2000/svg"
        >
          <path
            d="M0.271973 18H4.59197V12.36H10.664C14.984 12.36 17.624 10.2 17.624 6.67202C17.624 3.09602 15.008 0.912017 10.688 0.912017H0.271973V18ZM4.59197 9.36002V3.88802H9.72797C11.96 3.88802 13.28 4.92002 13.28 6.62402C13.28 8.32802 11.936 9.36002 9.72797 9.36002H4.59197Z"
            fill="white"
          />
          <path
            d="M26.8733 18.456C29.8973 18.456 32.6573 17.4 33.9773 15.912L32.1773 14.016C31.1933 15 29.2013 15.72 27.0893 15.72C24.6893 15.72 22.7213 14.688 22.3373 12.936H33.6413C33.7374 12.552 33.7854 12.048 33.7854 11.64C33.7854 7.87202 30.6893 5.25602 26.1293 5.25602C21.4493 5.25602 18.1853 7.94402 18.2093 11.76C18.2093 15.72 21.7853 18.456 26.8733 18.456ZM22.2893 10.752C22.5053 9.07202 24.0653 7.92002 26.0813 7.92002C28.0973 7.92002 29.6334 8.95202 29.7773 10.752H22.2893Z"
            fill="white"
          />
          <path d="M35.6324 18H39.5444V0.192017H35.6324V18Z" fill="white" />
          <path
            d="M49.2912 18.456C54.2352 18.456 57.4752 15.84 57.4752 11.856C57.4752 7.87202 54.2352 5.25602 49.2912 5.25602C44.3472 5.25602 41.1312 7.87202 41.1312 11.856C41.1312 15.84 44.3472 18.456 49.2912 18.456ZM49.2912 15.576C46.6992 15.576 45.0192 14.112 45.0192 11.856C45.0192 9.60002 46.6992 8.13602 49.2912 8.13602C51.9072 8.13602 53.5872 9.60002 53.5872 11.856C53.5872 14.112 51.9072 15.576 49.2912 15.576Z"
            fill="white"
          />
          <path
            d="M66.3727 18.456C68.7487 18.456 70.7407 17.496 71.8687 15.744L70.5007 13.56C69.7327 14.808 68.6287 15.504 67.2367 15.504C65.7727 15.504 64.9087 14.64 64.9087 13.128V8.44802H71.2447V5.71202H64.9087V1.46402L60.9727 2.25602V5.71202H57.9007V8.44802H60.9967V13.8C60.9967 16.68 63.0367 18.456 66.3727 18.456Z"
            fill="white"
          />
          <path
            d="M81.2718 18.456C84.2958 18.456 87.0558 17.4 88.3758 15.912L86.5758 14.016C85.5918 15 83.5998 15.72 81.4878 15.72C79.0878 15.72 77.1198 14.688 76.7358 12.936H88.0398C88.1358 12.552 88.1838 12.048 88.1838 11.64C88.1838 7.87202 85.0878 5.25602 80.5278 5.25602C75.8478 5.25602 72.5838 7.94402 72.6078 11.76C72.6078 15.72 76.1838 18.456 81.2718 18.456ZM76.6878 10.752C76.9038 9.07202 78.4638 7.92002 80.4798 7.92002C82.4958 7.92002 84.0318 8.95202 84.1758 10.752H76.6878Z"
            fill="white"
          />
          <path
            d="M97.1348 18.432C101.143 18.432 104.047 16.896 104.047 14.184C104.047 11.904 102.199 10.92 98.7188 10.464L96.1028 10.176C94.4948 9.96002 93.7268 9.64802 93.7268 8.97602C93.7268 8.23202 94.9988 7.70402 96.6788 7.70402C98.5028 7.70402 100.135 8.40002 100.831 9.43202L103.111 8.16002C102.103 6.43202 99.6308 5.28002 96.7748 5.28002C92.9828 5.28002 90.3188 6.74402 90.3188 9.38402C90.2948 11.544 92.0229 12.528 95.1668 12.888L97.7828 13.176C99.5828 13.392 100.543 13.776 100.543 14.496C100.543 15.336 99.1749 15.888 97.1108 15.888C94.7348 15.888 92.5748 14.976 91.8788 13.632L89.4788 14.856C90.3668 17.088 93.5348 18.432 97.1348 18.432Z"
            fill="white"
          />
          <path
            d="M112.709 18.456C115.085 18.456 117.077 17.496 118.205 15.744L116.837 13.56C116.069 14.808 114.965 15.504 113.573 15.504C112.109 15.504 111.245 14.64 111.245 13.128V8.44802H117.581V5.71202H111.245V1.46402L107.309 2.25602V5.71202H104.237V8.44802H107.333V13.8C107.333 16.68 109.373 18.456 112.709 18.456Z"
            fill="white"
          />
        </svg>